<svg xmlns="http://www.w3.org/2000/svg" width="32" height="32" viewBox="0 0 23 23" fill="none">
<path d="M15.5154 1.91675H7.48454C3.99621 1.91675 1.91663 3.99633 1.91663 7.48466V15.5059C1.91663 19.0038 3.99621 21.0834 7.48454 21.0834H15.5058C18.9941 21.0834 21.0737 19.0038 21.0737 15.5155V7.48466C21.0833 3.99633 19.0037 1.91675 15.5154 1.91675ZM14.1737 12.008L10.7908 15.3909C10.647 15.5347 10.465 15.6017 10.2829 15.6017C10.1008 15.6017 9.91871 15.5347 9.77496 15.3909C9.49704 15.113 9.49704 14.653 9.77496 14.3751L12.65 11.5001L9.77496 8.62508C9.49704 8.34717 9.49704 7.88717 9.77496 7.60925C10.0529 7.33133 10.5129 7.33133 10.7908 7.60925L14.1737 10.9922C14.4612 11.2701 14.4612 11.7301 14.1737 12.008Z" fill="#253746"/>
</svg>