<svg xmlns="http://www.w3.org/2000/svg" width="35" height="35" viewBox="0 0 35 35" fill="none">
<path d="M0 2.43766C0 1.09215 1.12645 0 2.51503 0H31.515C32.9041 0 34.03 1.09215 34.03 2.43766V31.5927C34.03 32.9386 32.9041 34.03 31.515 34.03H2.51503C1.12658 34.03 0 32.9388 0 31.5931V2.43727V2.43766Z" fill="#006699"/>
<path d="M10.341 28.4787V13.1583H5.24876V28.4787H10.3416H10.341ZM7.79596 11.0669C9.57137 11.0669 10.6767 9.89045 10.6767 8.42024C10.6434 6.91654 9.57137 5.77295 7.82973 5.77295C6.08689 5.77295 4.94861 6.91654 4.94861 8.42011C4.94861 9.89031 6.05352 11.0667 7.7626 11.0667H7.79556L7.79596 11.0669ZM13.1597 28.4787H18.2515V19.924C18.2515 19.4667 18.2848 19.0082 18.4193 18.6816C18.7873 17.7664 19.6251 16.819 21.0322 16.819C22.8743 16.819 23.6117 18.2238 23.6117 20.2836V28.4787H28.7034V19.6944C28.7034 14.9888 26.1916 12.7991 22.8413 12.7991C20.0946 12.7991 18.8883 14.3343 18.218 15.3799H18.2519V13.1588H13.1599C13.2264 14.596 13.1595 28.4792 13.1595 28.4792L13.1597 28.4787Z" fill="white"/>
</svg>