<svg xmlns="http://www.w3.org/2000/svg" width="48" height="47" viewBox="0 0 48 47" fill="none">
<path d="M31.2884 24.328V32.2765C31.2884 32.9796 31.2103 33.6436 31.0345 34.249C30.3119 37.1199 27.9293 38.9166 24.6484 38.9166H19.3363L13.4384 42.842C12.5596 43.4474 11.3878 42.8029 11.3878 41.7483V38.9166C9.39583 38.9166 7.73582 38.2526 6.58358 37.1003C5.41181 35.9286 4.7478 34.2685 4.7478 32.2765V24.328C4.7478 20.6174 7.05228 18.059 10.6067 17.727C10.8605 17.7075 11.1144 17.688 11.3878 17.688H24.6484C28.6324 17.688 31.2884 20.344 31.2884 24.328Z" fill="white"/>
<path d="M35.5068 30.5777C37.9871 30.5777 40.0767 29.7575 41.5219 28.2928C42.9866 26.8476 43.8069 24.7579 43.8069 22.2777V12.3176C43.8069 7.72819 40.0963 4.01758 35.5068 4.01758H18.9067C14.3173 4.01758 10.6067 7.72819 10.6067 12.3176V13.7823C10.6067 14.3292 11.0363 14.7588 11.5832 14.7588H24.6484C29.9409 14.7588 34.2179 19.0358 34.2179 24.3283V29.6012C34.2179 30.1481 34.6475 30.5777 35.1943 30.5777H35.5068Z" fill="white"/>
</svg>