<svg xmlns="http://www.w3.org/2000/svg" width="39" height="33" viewBox="0 0 39 33" fill="none">
<path d="M25.0538 16.8128V22.3245C25.0538 22.812 24.9898 23.2724 24.846 23.6922C24.2548 25.6829 22.3054 26.9288 19.621 26.9288H15.2749L10.4493 29.6508C9.7303 30.0706 8.77158 29.6237 8.77158 28.8924V26.9288C7.14177 26.9288 5.78359 26.4684 4.84085 25.6694C3.88214 24.8568 3.33887 23.7058 3.33887 22.3245V16.8128C3.33887 14.2398 5.22434 12.4658 8.13244 12.2356C8.34016 12.222 8.54788 12.2085 8.77158 12.2085H19.621C22.8807 12.2085 25.0538 14.0502 25.0538 16.8128Z" fill="white"/>
<path d="M28.5053 21.1463C30.5345 21.1463 32.2442 20.5775 33.4267 19.5619C34.6251 18.5598 35.2962 17.1107 35.2962 15.3909V8.48441C35.2962 5.30201 32.2602 2.729 28.5053 2.729H14.9235C11.1685 2.729 8.13257 5.30201 8.13257 8.48441V9.50007C8.13257 9.87925 8.4841 10.1772 8.9315 10.1772H19.6212C23.9514 10.1772 27.4507 13.1429 27.4507 16.8128V20.4692C27.4507 20.8484 27.8022 21.1463 28.2496 21.1463H28.5053Z" fill="white"/>
</svg>