<svg xmlns="http://www.w3.org/2000/svg" width="35" height="35" viewBox="0 0 35 35" fill="none">
<path d="M23.3374 3.34258H11.6188C6.52856 3.34258 3.49402 6.37712 3.49402 11.4673V23.172C3.49402 28.2762 6.52856 31.3107 11.6188 31.3107H23.3234C28.4136 31.3107 31.4482 28.2762 31.4482 23.186V11.4673C31.4621 6.37712 28.4276 3.34258 23.3374 3.34258ZM24.1625 14.1103L16.2335 22.0393C16.0377 22.235 15.772 22.3469 15.4923 22.3469C15.2127 22.3469 14.947 22.235 14.7512 22.0393L10.7937 18.0818C10.3882 17.6762 10.3882 17.005 10.7937 16.5995C11.1992 16.1939 11.8705 16.1939 12.276 16.5995L15.4923 19.8158L22.6802 12.628C23.0857 12.2225 23.7569 12.2225 24.1625 12.628C24.568 13.0335 24.568 13.6908 24.1625 14.1103Z" fill="#253746"/>
</svg>